<svg id="레이어_1" data-name="레이어 1" xmlns="http://www.w3.org/2000/svg" viewBox="0 0 179 150"><path d="M89.7,44.58a9.57,9.57,0,0,1-7.29-3.24,11.09,11.09,0,0,1-3-7.87,11.43,11.43,0,0,1,.79-4.23,10.84,10.84,0,0,1,2.24-3.57,38.6,38.6,0,0,0,4-5c1.29-2.11,3.22-6.33,3.22-6.33s1.93,4.22,3.22,6.33a38.34,38.34,0,0,0,4.06,5,11.18,11.18,0,0,1,2.24,3.57,11.63,11.63,0,0,1,.78,4.23,11.12,11.12,0,0,1-3,7.87A9.6,9.6,0,0,1,89.7,44.58Z" style="fill:#73eeba"/><path d="M90.85,71.22c-7.22-7.58-14.3-15.09-21.33-22.86C68,46.65,70.38,37,63.39,35.24,52.67,32.59,51.89,43.18,52.55,48c-4.93,6.37-19.18,18.28-25.46,25.81-6.32,6-3.81,14.93,5.66,13.2,4.56-1.31,7.2-5.43,10.6-8.25,2.76-2.4,5.69-5.05,8.57-7.76v32.57c0,1.18,0,2.37,0,3.54a12,12,0,0,1-.35,1.34l-.32.55,0,0-.09.06c-.18,0-.36.11-.54.15s-.64,0-.95,0-.65-.15-1-.25l-.45-.26s0,0,0,0l-.08-.13c-.07-.22-.13-.45-.18-.67a18.89,18.89,0,0,1,.15-3.19l-.12.91a7.53,7.53,0,0,0-11.23-7.77c-1.54,1-3.21,2.63-3.48,4.53-.5,3.44-.79,6.83.24,10.22a15.76,15.76,0,0,0,4.23,7.06,18.94,18.94,0,0,0,11.39,4.73A16.24,16.24,0,0,0,60.36,121c4.22-3.26,6-8,6.62-13.14a83,83,0,0,0,.09-9.06V77.75c0-2.8,0-5.6,0-8.4L80.24,81.71C90.7,94,102,82.29,90.85,71.22Z" style="fill:#303030"/><path d="M150.71,71.22c-7.21-7.58-14.3-15.09-21.33-22.86-1.55-1.71.86-11.39-6.13-13.12-10.72-2.65-11.5,7.94-10.84,12.76C107.48,54.37,93.23,66.28,87,73.81c-6.32,6-3.81,14.93,5.66,13.2,4.56-1.31,7.2-5.43,10.6-8.25,2.73-2.37,5.61-5,8.46-7.66v32.16c0,1.17,0,2.36,0,3.54a12.4,12.4,0,0,1-.35,1.33c-.1.19-.2.37-.31.55l0,0-.09.06-.54.15c-.31,0-.64,0-1,0s-.65-.16-1-.26l-.45-.26,0,0-.08-.13c-.07-.22-.12-.45-.18-.67a18,18,0,0,1,.16-3.19c-.05.31-.09.61-.13.92a7.53,7.53,0,0,0-11.23-7.78c-1.54,1-3.2,2.63-3.48,4.53-.5,3.44-.78,6.83.24,10.23a15.73,15.73,0,0,0,4.23,7,18.94,18.94,0,0,0,11.39,4.73,16.28,16.28,0,0,0,11.3-3.34c4.22-3.27,6-8,6.62-13.15a83,83,0,0,0,.09-9.06V77.44c0-2.73,0-5.47,0-8.2L140.1,81.71C150.56,94,161.88,82.29,150.71,71.22Z" style="fill:#303030"/></svg>