<svg id="레이어_1" data-name="레이어 1" xmlns="http://www.w3.org/2000/svg" viewBox="0 0 274 150"><path d="M21.68,69C37,63.06,44.3,52.89,47.13,43.78V27.14H60.68V38.49C67.45,44.3,75.18,52.23,79,58.83L67.86,64.64c-2-3.69-6.09-8.18-10.57-12.41-4.6,10.3-14.35,21.79-31,28.13Zm45.65,0c19.23-7.53,25-16.77,25.46-24.43V27.14h13.55V43.91c2.57,9,9.88,19.15,25.19,25.09l-4.6,11.36a56.72,56.72,0,0,1-26.69-20.6c-5,7.53-13.95,15.05-28.31,20.6Z" style="fill:#73eeba"/><rect x="20.55" y="98.66" width="112.1" height="13" style="fill:#303030"/><polygon points="168.96 111.66 168.96 95.27 142.28 95.27 142.28 82.27 252.8 82.27 252.8 95.27 226.26 95.27 226.26 111.66 212.72 111.66 212.72 95.27 182.51 95.27 182.51 111.66 168.96 111.66" style="fill:#303030"/><path d="M143.76,59.43c27.91-4.87,41.58-13.08,46.87-20V27.14h13.55v12c5.42,5.57,19.23,12.67,46.59,17.54l-2.16,12.81c-26-4.6-42.27-12-50.79-18.94-8.41,8.5-25.06,17-51.89,21.72Z" style="fill:#73eeba"/></svg>