<svg id="레이어_1" data-name="레이어 1" xmlns="http://www.w3.org/2000/svg" viewBox="0 0 460 200"><path d="M105.7,71.08a9.57,9.57,0,0,1-7.29-3.24,11.09,11.09,0,0,1-3-7.87,11.43,11.43,0,0,1,.79-4.23,10.84,10.84,0,0,1,2.24-3.57,38.6,38.6,0,0,0,4-5c1.29-2.11,3.22-6.33,3.22-6.33s1.93,4.22,3.22,6.33a38.34,38.34,0,0,0,4.06,5,11.18,11.18,0,0,1,2.24,3.57A11.63,11.63,0,0,1,116,60a11.12,11.12,0,0,1-3,7.87A9.6,9.6,0,0,1,105.7,71.08Z" style="fill:#73eeba"/><path d="M106.85,97.72c-7.22-7.58-14.3-15.09-21.33-22.86-1.55-1.71.86-11.39-6.13-13.12-10.72-2.65-11.5,7.94-10.84,12.76-4.93,6.37-19.18,18.28-25.46,25.81-6.32,6-3.81,14.93,5.66,13.2,4.56-1.31,7.2-5.43,10.6-8.25,2.76-2.4,5.69-5.05,8.57-7.76v32.57c0,1.18,0,2.37,0,3.54a12,12,0,0,1-.35,1.34l-.32.55,0,0-.09.06-.54.15c-.31,0-.64,0-1,0s-.65-.15-1-.25l-.45-.26s0,0,0,0l-.08-.13c-.07-.22-.13-.45-.18-.67a18.89,18.89,0,0,1,.15-3.19l-.12.91a7.53,7.53,0,0,0-11.23-7.77c-1.54,1-3.21,2.63-3.48,4.53-.5,3.44-.79,6.83.24,10.22a15.76,15.76,0,0,0,4.23,7.06,18.94,18.94,0,0,0,11.39,4.73,16.24,16.24,0,0,0,11.3-3.35c4.22-3.26,6-8,6.62-13.14a83,83,0,0,0,.09-9.06V104.25c0-2.8,0-5.6,0-8.4l13.14,12.36C106.7,120.48,118,108.79,106.85,97.72Z" style="fill:#303030"/><path d="M166.71,97.72c-7.21-7.58-14.3-15.09-21.33-22.86-1.55-1.71.86-11.39-6.13-13.12-10.72-2.65-11.5,7.94-10.84,12.76-4.93,6.37-19.18,18.28-25.46,25.81-6.32,6-3.81,14.93,5.66,13.2,4.56-1.31,7.2-5.43,10.6-8.25,2.73-2.37,5.61-5,8.46-7.66v32.16c0,1.17,0,2.36,0,3.54a12.4,12.4,0,0,1-.35,1.33c-.1.19-.2.37-.31.55l0,0-.09.06-.54.15c-.31,0-.64,0-1,0s-.65-.16-1-.26l-.45-.26,0,0-.08-.13c-.07-.22-.12-.45-.18-.67a18,18,0,0,1,.16-3.19c-.05.31-.09.61-.13.92A7.53,7.53,0,0,0,112.43,124c-1.54,1-3.2,2.63-3.48,4.53-.5,3.44-.78,6.83.24,10.23a15.73,15.73,0,0,0,4.23,7,18.94,18.94,0,0,0,11.39,4.73,16.28,16.28,0,0,0,11.3-3.34c4.22-3.27,6-8,6.62-13.15a83,83,0,0,0,.09-9.06V103.94c0-2.73,0-5.47,0-8.2l13.25,12.47C166.56,120.48,177.88,108.79,166.71,97.72Z" style="fill:#303030"/><path d="M188.68,95.5c15.3-5.94,22.62-16.11,25.45-25.22V53.64h13.55V65c6.77,5.81,14.5,13.74,18.29,20.34l-11.11,5.81c-2-3.69-6.09-8.18-10.57-12.41-4.6,10.3-14.35,21.79-31,28.13Zm45.65,0c19.23-7.53,25-16.77,25.46-24.43V53.64h13.55V70.41c2.57,9,9.88,19.15,25.19,25.09l-4.6,11.36a56.72,56.72,0,0,1-26.69-20.6c-5,7.53-14,15-28.31,20.6Z" style="fill:#73eeba"/><rect x="187.55" y="125.16" width="112.1" height="13" style="fill:#303030"/><polygon points="335.96 138.16 335.96 121.77 309.28 121.77 309.28 108.77 419.8 108.77 419.8 121.77 393.26 121.77 393.26 138.16 379.72 138.16 379.72 121.77 349.51 121.77 349.51 138.16 335.96 138.16" style="fill:#303030"/><path d="M310.76,85.93c27.91-4.87,41.58-13.08,46.87-20V53.64h13.55v12c5.42,5.57,19.23,12.67,46.59,17.54L415.61,96c-26-4.6-42.27-12-50.79-18.94-8.41,8.5-25.06,17-51.89,21.72Z" style="fill:#73eeba"/></svg>