<svg id="레이어_1" data-name="레이어 1" xmlns="http://www.w3.org/2000/svg" viewBox="0 0 460 200"><path d="M112.15,61.71a8.29,8.29,0,0,1-6.3-2.79,9.63,9.63,0,0,1-2.61-6.81,9.84,9.84,0,0,1,.69-3.66,9.49,9.49,0,0,1,1.93-3.09,32.85,32.85,0,0,0,3.51-4.31c1.11-1.83,2.78-5.47,2.78-5.47s1.67,3.64,2.79,5.47a33.11,33.11,0,0,0,3.5,4.31,9.35,9.35,0,0,1,1.94,3.09,9.83,9.83,0,0,1,.68,3.66,9.63,9.63,0,0,1-2.6,6.81A8.29,8.29,0,0,1,112.15,61.71Z" style="fill:#73eeba"/><path d="M113.14,84.75C106.91,78.2,100.78,71.7,94.7,65c-1.34-1.48.74-9.84-5.3-11.34-9.27-2.3-9.94,6.87-9.38,11C75.76,70.18,63.44,80.48,58,87c-5.46,5.17-3.29,12.91,4.89,11.42,3.95-1.14,6.23-4.7,9.18-7.14,2.38-2.07,4.91-4.37,7.4-6.71v28.17c0,1,0,2,0,3.06a11.43,11.43,0,0,1-.3,1.15c-.09.16-.18.32-.28.48l0,0-.07.06-.47.13a7.69,7.69,0,0,1-.83,0,8.48,8.48,0,0,1-.83-.22l-.39-.23,0,0-.06-.12c-.06-.19-.11-.39-.16-.58a16,16,0,0,1,.13-2.76l-.1.79a6.51,6.51,0,0,0-9.72-6.72,6.33,6.33,0,0,0-3,3.92,20.14,20.14,0,0,0,.21,8.84,13.71,13.71,0,0,0,3.66,6.1A16.37,16.37,0,0,0,77,130.71a14.06,14.06,0,0,0,9.77-2.89C90.43,125,92,120.9,92.5,116.45a70.69,70.69,0,0,0,.09-7.84V90.4c0-2.42,0-4.85,0-7.27L104,93.82C113,104.43,122.8,94.32,113.14,84.75Z" style="fill:#303030"/><path d="M164.91,84.75c-6.24-6.55-12.36-13-18.45-19.77-1.34-1.48.75-9.84-5.29-11.34-9.27-2.3-9.95,6.87-9.38,11-4.26,5.5-16.58,15.8-22,22.31-5.47,5.17-3.3,12.91,4.89,11.42,3.94-1.14,6.22-4.7,9.17-7.14,2.35-2,4.85-4.31,7.31-6.62v27.8c0,1,0,2,0,3.07a9.3,9.3,0,0,1-.31,1.15,4.39,4.39,0,0,1-.27.47l0,0-.08,0a3.47,3.47,0,0,1-.46.13,7.66,7.66,0,0,1-.83,0l-.83-.22-.39-.23,0,0a.75.75,0,0,0-.07-.12l-.15-.58a15.84,15.84,0,0,1,.13-2.75c0,.26-.07.53-.1.79a6.51,6.51,0,0,0-9.72-6.72,6.31,6.31,0,0,0-3,3.91,20.18,20.18,0,0,0,.21,8.85,13.82,13.82,0,0,0,3.66,6.1,16.47,16.47,0,0,0,9.85,4.09,14.07,14.07,0,0,0,9.77-2.9c3.65-2.82,5.22-6.91,5.72-11.37a70.51,70.51,0,0,0,.08-7.83V90.13c0-2.36,0-4.73,0-7.09l11.46,10.78C164.78,104.43,174.57,94.32,164.91,84.75Z" style="fill:#303030"/><path d="M189.07,82.78c15.3-5.94,22.62-16.11,25.46-25.23V40.91h13.54V52.27c6.78,5.81,14.51,13.74,18.29,20.34l-11.1,5.81c-2-3.7-6.1-8.19-10.57-12.41-4.6,10.3-14.35,21.79-31,28.13Zm45.65,0C254,75.25,259.78,66,260.19,58.35V40.91h13.54V57.69c2.57,9,9.88,19.15,25.19,25.09l-4.6,11.36a56.64,56.64,0,0,1-26.68-20.61c-5,7.53-14,15.06-28.32,20.61Z" style="fill:#73eeba"/><rect x="187.95" y="112.43" width="112.1" height="13" style="fill:#303030"/><polygon points="336.36 125.44 336.36 109.05 309.67 109.05 309.67 96.04 420.2 96.04 420.2 109.05 393.65 109.05 393.65 125.44 380.11 125.44 380.11 109.05 349.9 109.05 349.9 125.44 336.36 125.44" style="fill:#303030"/><path d="M311.15,73.21c27.91-4.87,41.59-13.09,46.88-20V40.91h13.54v12c5.42,5.56,19.23,12.66,46.59,17.54L416,83.23c-26-4.59-42.28-12-50.8-18.93-8.41,8.49-25.06,17-51.88,21.72Z" style="fill:#73eeba"/><text transform="translate(108.76 159.85)" style="font-size:24px;fill:#a0a0a0;font-family:Korail-Round-Gothic-Medium, Korail Round Gothic Medium;font-weight:500;letter-spacing:0.3999837239583333em">대전시민공용우산</text></svg>